<svg width="24" height="32" viewBox="0 0 24 32" fill="none" xmlns="http://www.w3.org/2000/svg">
<path d="M23.4473 19.4857L21.8872 16.8959C21.5596 16.3187 21.2632 15.2266 21.2632 14.587V10.6399C21.2632 6.97366 19.1102 3.80665 16.0056 2.32455C15.1944 0.889258 13.6967 0 11.9806 0C10.2801 0 8.75123 0.92046 7.93998 2.37136C4.89778 3.88465 2.79164 7.02046 2.79164 10.6399V14.587C2.79164 15.2266 2.49522 16.3187 2.1676 16.8803L0.591896 19.4857C-0.0321447 20.5309 -0.172554 21.6854 0.217472 22.7463C0.591896 23.7916 1.48115 24.6028 2.63563 24.9928C5.66223 26.0225 8.84484 26.5217 12.0274 26.5217C15.21 26.5217 18.3926 26.0225 21.4192 25.0084C22.5113 24.6496 23.3537 23.8228 23.7593 22.7463C24.165 21.6698 24.0558 20.4841 23.4473 19.4857Z" fill="#292D32"/>
<path d="M16.411 28.0973C15.7558 29.907 14.0241 31.2019 11.9959 31.2019C10.7635 31.2019 9.54658 30.7026 8.68851 29.8134C8.18927 29.3453 7.81485 28.7213 7.59644 28.0817C7.79925 28.1129 8.00206 28.1285 8.22048 28.1597C8.5793 28.2065 8.95374 28.2533 9.32816 28.2845C10.2174 28.3625 11.1223 28.4093 12.0271 28.4093C12.9164 28.4093 13.8057 28.3625 14.6793 28.2845C15.0069 28.2533 15.3346 28.2377 15.6466 28.1909C15.8962 28.1597 16.1458 28.1285 16.411 28.0973Z" fill="#292D32"/>
</svg>
