<svg width="17" height="17" viewBox="0 0 17 17" fill="none" xmlns="http://www.w3.org/2000/svg">
<path d="M8.20686 16.4595C7.6801 16.4595 7.18387 16.1923 6.83269 15.7266L5.68755 14.1998C5.66464 14.1692 5.57303 14.1311 5.53486 14.1234H5.15315C1.96965 14.1234 0 13.2608 0 8.97029V5.15315C0 1.77879 1.77879 0 5.15315 0H11.2606C14.6349 0 16.4137 1.77879 16.4137 5.15315V8.97029C16.4137 12.3447 14.6349 14.1234 11.2606 14.1234H10.8789C10.8178 14.1234 10.7644 14.154 10.7262 14.1998L9.58104 15.7266C9.22986 16.1923 8.73363 16.4595 8.20686 16.4595ZM5.15315 1.14514C2.42007 1.14514 1.14514 2.42007 1.14514 5.15315V8.97029C1.14514 12.421 2.32846 12.9783 5.15315 12.9783H5.53486C5.92421 12.9783 6.367 13.1997 6.60366 13.5127L7.74881 15.0396C8.01601 15.3907 8.39772 15.3907 8.66492 15.0396L9.81007 13.5127C10.062 13.1768 10.459 12.9783 10.8789 12.9783H11.2606C13.9937 12.9783 15.2686 11.7034 15.2686 8.97029V5.15315C15.2686 2.42007 13.9937 1.14514 11.2606 1.14514H5.15315Z" fill="black"/>
<path d="M8.20679 8.20679C7.77927 8.20679 7.44336 7.86325 7.44336 7.44336C7.44336 7.02347 7.7869 6.67993 8.20679 6.67993C8.62667 6.67993 8.97022 7.02347 8.97022 7.44336C8.97022 7.86325 8.63431 8.20679 8.20679 8.20679Z" fill="black"/>
<path d="M11.2605 8.20679C10.833 8.20679 10.4971 7.86325 10.4971 7.44336C10.4971 7.02347 10.8406 6.67993 11.2605 6.67993C11.6804 6.67993 12.0239 7.02347 12.0239 7.44336C12.0239 7.86325 11.688 8.20679 11.2605 8.20679Z" fill="black"/>
<path d="M5.15308 8.20679C4.72556 8.20679 4.38965 7.86325 4.38965 7.44336C4.38965 7.02347 4.73319 6.67993 5.15308 6.67993C5.57296 6.67993 5.91651 7.02347 5.91651 7.44336C5.91651 7.86325 5.5806 8.20679 5.15308 8.20679Z" fill="black"/>
</svg>
