<svg width="30" height="30" viewBox="0 0 30 30" fill="none" xmlns="http://www.w3.org/2000/svg">
<circle cx="15" cy="15" r="15" fill="#E4E4E4"/>
<path d="M15.2069 23.4595C14.6801 23.4595 14.1839 23.1923 13.8327 22.7266L12.6875 21.1998C12.6646 21.1692 12.573 21.1311 12.5349 21.1234H12.1531C8.96965 21.1234 7 20.2608 7 15.9703V12.1531C7 8.77879 8.77879 7 12.1531 7H18.2606C21.6349 7 23.4137 8.77879 23.4137 12.1531V15.9703C23.4137 19.3447 21.6349 21.1234 18.2606 21.1234H17.8789C17.8178 21.1234 17.7644 21.154 17.7262 21.1998L16.581 22.7266C16.2299 23.1923 15.7336 23.4595 15.2069 23.4595ZM12.1531 8.14514C9.42007 8.14514 8.14514 9.42007 8.14514 12.1531V15.9703C8.14514 19.421 9.32846 19.9783 12.1531 19.9783H12.5349C12.9242 19.9783 13.367 20.1997 13.6037 20.5127L14.7488 22.0396C15.016 22.3907 15.3977 22.3907 15.6649 22.0396L16.8101 20.5127C17.062 20.1768 17.459 19.9783 17.8789 19.9783H18.2606C20.9937 19.9783 22.2686 18.7034 22.2686 15.9703V12.1531C22.2686 9.42007 20.9937 8.14514 18.2606 8.14514H12.1531Z" fill="black"/>
<path d="M15.2068 15.2068C14.7793 15.2068 14.4434 14.8632 14.4434 14.4434C14.4434 14.0235 14.7869 13.6799 15.2068 13.6799C15.6267 13.6799 15.9702 14.0235 15.9702 14.4434C15.9702 14.8632 15.6343 15.2068 15.2068 15.2068Z" fill="black"/>
<path d="M18.2607 15.2068C17.8332 15.2068 17.4973 14.8632 17.4973 14.4434C17.4973 14.0235 17.8409 13.6799 18.2607 13.6799C18.6806 13.6799 19.0242 14.0235 19.0242 14.4434C19.0242 14.8632 18.6883 15.2068 18.2607 15.2068Z" fill="black"/>
<path d="M12.1531 15.2068C11.7256 15.2068 11.3896 14.8632 11.3896 14.4434C11.3896 14.0235 11.7332 13.6799 12.1531 13.6799C12.573 13.6799 12.9165 14.0235 12.9165 14.4434C12.9165 14.8632 12.5806 15.2068 12.1531 15.2068Z" fill="black"/>
</svg>
