<svg width="18" height="17" viewBox="0 0 18 17" fill="none" xmlns="http://www.w3.org/2000/svg">
<path d="M9.41422 10.4602H7.32218C6.97908 10.4602 6.69456 10.1757 6.69456 9.83263C6.69456 9.48954 6.97908 9.20502 7.32218 9.20502H9.41422C11.6067 9.20502 13.3891 7.42259 13.3891 5.23012C13.3891 3.03766 11.6067 1.25523 9.41422 1.25523H5.23012C3.03766 1.25523 1.25523 3.03766 1.25523 5.23012C1.25523 6.15063 1.58159 7.04602 2.16736 7.75732C2.38494 8.0251 2.35146 8.41841 2.08368 8.64435C1.8159 8.86192 1.42259 8.82845 1.19665 8.56067C0.426778 7.62343 0 6.44351 0 5.23012C0 2.3431 2.3431 0 5.23012 0H9.41422C12.3013 0 14.6444 2.3431 14.6444 5.23012C14.6444 8.11715 12.3013 10.4602 9.41422 10.4602Z" fill="#DCDCDC"/>
<path d="M12.7615 16.3182H8.57742C5.69039 16.3182 3.34729 13.9751 3.34729 11.088C3.34729 8.20101 5.69039 5.85791 8.57742 5.85791H10.6695C11.0126 5.85791 11.2971 6.14243 11.2971 6.48553C11.2971 6.82862 11.0126 7.11314 10.6695 7.11314H8.57742C6.38495 7.11314 4.60252 8.89557 4.60252 11.088C4.60252 13.2805 6.38495 15.0629 8.57742 15.0629H12.7615C14.954 15.0629 16.7364 13.2805 16.7364 11.088C16.7364 10.1675 16.4101 9.27214 15.8243 8.56084C15.6067 8.29306 15.6402 7.89975 15.908 7.67381C16.1757 7.44787 16.569 7.48971 16.795 7.75749C17.5732 8.69473 18 9.87465 18 11.088C17.9916 13.9751 15.6485 16.3182 12.7615 16.3182Z" fill="#DCDCDC"/>
</svg>
