<svg width="21" height="18" viewBox="0 0 21 18" fill="none" xmlns="http://www.w3.org/2000/svg">
<path d="M5.68923 0.0326043C5.88035 -0.0716449 6.08342 0.0887295 6.08342 0.306422V14.7487C6.08342 14.9866 5.92105 15.1878 5.71075 15.2988C5.70353 15.3026 5.69636 15.3065 5.68923 15.3104L3.18554 16.7381C1.43829 17.7395 0 16.9085 0 14.8843V4.51793C0 3.84673 0.479429 3.01572 1.07605 2.67479L5.68923 0.0326043Z" fill="#292D32"/>
<path d="M13.2458 2.73141C13.4272 2.82127 13.5421 3.00627 13.5421 3.20877V17.2221C13.5421 17.6147 13.1319 17.8724 12.7782 17.7021L8.25024 15.5206C8.0659 15.4317 7.94873 15.2451 7.94873 15.0406V0.966361C7.94873 0.571248 8.36381 0.313645 8.71784 0.488999L13.2458 2.73141Z" fill="#292D32"/>
<path d="M21.0001 3.14371V13.5101C21.0001 14.1813 20.5206 15.0123 19.924 15.3532L16.2043 17.485C15.8492 17.6886 15.4067 17.4321 15.4067 17.0228V2.97359C15.4067 2.78234 15.5092 2.60576 15.6753 2.51096L17.8145 1.28992C19.5618 0.288446 21.0001 1.11946 21.0001 3.14371Z" fill="#292D32"/>
</svg>
