<svg width="181" height="181" viewBox="0 0 181 181" fill="none" xmlns="http://www.w3.org/2000/svg">
<path d="M64.85 176H116.15C158.9 176 176 158.9 176 116.15V64.85C176 22.1 158.9 5 116.15 5H64.85C22.1 5 5 22.1 5 64.85V116.15C5 158.9 22.1 176 64.85 176Z" stroke="#DFDFDF" stroke-width="9.60818" stroke-linecap="round" stroke-linejoin="round"/>
<path d="M47.7502 62.7125C56.3002 54.1625 70.2367 54.1625 78.8722 62.7125" stroke="#DFDFDF" stroke-width="9.60818" stroke-miterlimit="10" stroke-linecap="round" stroke-linejoin="round"/>
<path d="M102.129 62.7125C110.679 54.1625 124.615 54.1625 133.251 62.7125" stroke="#DFDFDF" stroke-width="9.60818" stroke-miterlimit="10" stroke-linecap="round" stroke-linejoin="round"/>
<path d="M59.7201 139.235H121.28C125.555 139.235 128.975 135.815 128.975 131.54C128.975 110.25 111.79 93.0649 90.5001 93.0649C69.2106 93.0649 52.0251 110.25 52.0251 131.54C52.0251 135.815 55.4451 139.235 59.7201 139.235Z" stroke="#DFDFDF" stroke-width="9.60818" stroke-miterlimit="10" stroke-linecap="round" stroke-linejoin="round"/>
</svg>
