<svg width="20" height="27" viewBox="0 0 20 27" fill="none" xmlns="http://www.w3.org/2000/svg">
<path d="M19.5394 16.2381L18.2394 14.0799C17.9663 13.5989 17.7193 12.6888 17.7193 12.1558V8.86658C17.7193 5.81138 15.9252 3.17221 13.338 1.93713C12.662 0.741048 11.4139 0 9.98382 0C8.56672 0 7.29269 0.76705 6.61665 1.97613C4.08148 3.23721 2.32637 5.85038 2.32637 8.86658V12.1558C2.32637 12.6888 2.07935 13.5989 1.80633 14.0669L0.493247 16.2381C-0.0267872 17.1091 -0.143795 18.0712 0.181227 18.9552C0.493247 19.8263 1.2343 20.5023 2.19636 20.8274C4.71852 21.6854 7.3707 22.1014 10.0228 22.1014C12.675 22.1014 15.3272 21.6854 17.8493 20.8404C18.7594 20.5413 19.4614 19.8523 19.7995 18.9552C20.1375 18.0582 20.0465 17.0701 19.5394 16.2381Z" fill="#292D32"/>
<path d="M13.6756 23.4144C13.1295 24.9225 11.6864 26.0015 9.99633 26.0015C8.96926 26.0015 7.9552 25.5855 7.24014 24.8445C6.82411 24.4544 6.51209 23.9344 6.33008 23.4014C6.49909 23.4274 6.6681 23.4404 6.85011 23.4664C7.14913 23.5054 7.46116 23.5444 7.77318 23.5704C8.51423 23.6354 9.26828 23.6744 10.0223 23.6744C10.7634 23.6744 11.5044 23.6354 12.2325 23.5704C12.5055 23.5444 12.7785 23.5314 13.0385 23.4924C13.2465 23.4664 13.4546 23.4404 13.6756 23.4144Z" fill="#292D32"/>
</svg>
