<svg width="50" height="50" viewBox="0 0 50 50" fill="none" xmlns="http://www.w3.org/2000/svg">
<path d="M50 25C50 11.225 38.775 0 25 0C11.225 0 0 11.225 0 25C0 32.25 3.125 38.775 8.075 43.35C8.075 43.375 8.075 43.375 8.05 43.4C8.3 43.65 8.6 43.85 8.85 44.075C9 44.2 9.125 44.325 9.275 44.425C9.725 44.8 10.225 45.15 10.7 45.5C10.875 45.625 11.025 45.725 11.2 45.85C11.675 46.175 12.175 46.475 12.7 46.75C12.875 46.85 13.075 46.975 13.25 47.075C13.75 47.35 14.275 47.6 14.825 47.825C15.025 47.925 15.225 48.025 15.425 48.1C15.975 48.325 16.525 48.525 17.075 48.7C17.275 48.775 17.475 48.85 17.675 48.9C18.275 49.075 18.875 49.225 19.475 49.375C19.65 49.425 19.825 49.475 20.025 49.5C20.725 49.65 21.425 49.75 22.15 49.825C22.25 49.825 22.35 49.85 22.45 49.875C23.3 49.95 24.15 50 25 50C25.85 50 26.7 49.95 27.525 49.875C27.625 49.875 27.725 49.85 27.825 49.825C28.55 49.75 29.25 49.65 29.95 49.5C30.125 49.475 30.3 49.4 30.5 49.375C31.1 49.225 31.725 49.1 32.3 48.9C32.5 48.825 32.7 48.75 32.9 48.7C33.45 48.5 34.025 48.325 34.55 48.1C34.75 48.025 34.95 47.925 35.15 47.825C35.675 47.6 36.2 47.35 36.725 47.075C36.925 46.975 37.1 46.85 37.275 46.75C37.775 46.45 38.275 46.175 38.775 45.85C38.95 45.75 39.1 45.625 39.275 45.5C39.775 45.15 40.25 44.8 40.7 44.425C40.85 44.3 40.975 44.175 41.125 44.075C41.4 43.85 41.675 43.625 41.925 43.4C41.925 43.375 41.925 43.375 41.9 43.35C46.875 38.775 50 32.25 50 25ZM37.35 37.425C30.575 32.875 19.475 32.875 12.65 37.425C11.55 38.15 10.65 39 9.9 39.925C6.1 36.075 3.75 30.8 3.75 25C3.75 13.275 13.275 3.75 25 3.75C36.725 3.75 46.25 13.275 46.25 25C46.25 30.8 43.9 36.075 40.1 39.925C39.375 39 38.45 38.15 37.35 37.425Z" fill="#292D32"/>
<path d="M25 12.3242C19.825 12.3242 15.625 16.5242 15.625 21.6992C15.625 26.7742 19.6 30.8992 24.875 31.0492H25.1H25.275H25.325C30.375 30.8742 34.35 26.7742 34.375 21.6992C34.375 16.5242 30.175 12.3242 25 12.3242Z" fill="#292D32"/>
</svg>
