<svg width="16" height="22" viewBox="0 0 16 22" fill="none" xmlns="http://www.w3.org/2000/svg">
<path d="M7.74242 0C4.86051 0 2.51758 2.34293 2.51758 5.22484C2.51758 8.05176 4.72851 10.3397 7.61043 10.4387C7.69842 10.4277 7.78642 10.4277 7.85242 10.4387H7.90742H7.92942C10.7453 10.3397 12.9563 8.05176 12.9673 5.22484C12.9673 2.34293 10.6243 0 7.74242 0Z" fill="black"/>
<path d="M13.3316 13.3763C10.2626 11.3303 5.25784 11.3303 2.16693 13.3763C0.769977 14.3002 0 15.5652 0 16.9181C0 18.2711 0.769977 19.5251 2.15594 20.449C3.69589 21.483 5.71978 22 7.74372 22C9.76766 22 11.7916 21.483 13.3316 20.449C14.7175 19.5141 15.4875 18.2601 15.4875 16.8961C15.4765 15.5542 14.7175 14.2892 13.3316 13.3763ZM9.75666 17.6771H5.74178C5.32384 17.6771 4.98285 17.3361 4.98285 16.9181C4.98285 16.5002 5.32384 16.1592 5.74178 16.1592H9.75666C10.1747 16.1592 10.5156 16.5002 10.5156 16.9181C10.5156 17.3361 10.1747 17.6771 9.75666 17.6771Z" fill="black"/>
<path d="M2.80127 15.3132L5.79601 14.2437H7.29338L11.3577 15.3132L12.4272 17.6662L7.93511 19.1636L3.87082 18.3079L2.80127 15.3132Z" fill="black"/>
</svg>
