<svg width="27" height="26" viewBox="0 0 27 26" fill="none" xmlns="http://www.w3.org/2000/svg">
<path d="M5.73043 0C4.38059 0 3.13263 0.471169 2.15209 1.26069C0.827729 2.30491 0 3.92216 0 5.73043C0 6.80011 0.305623 7.81885 0.827729 8.68478C1.51538 9.83087 2.59779 10.7223 3.89669 11.1552C4.46973 11.359 5.08098 11.4609 5.73043 11.4609C7.18214 11.4609 8.49377 10.926 9.49978 10.0346C9.94548 9.65259 10.3275 9.19415 10.6331 8.68478C10.9005 8.23908 11.1043 7.76791 11.2444 7.25854C11.3844 6.77464 11.4609 6.25253 11.4609 5.73043C11.4609 2.55959 8.90127 0 5.73043 0ZM7.84432 6.6855H6.71097V7.86979C6.71097 8.39189 6.278 8.82486 5.7559 8.82486C5.23379 8.82486 4.80083 8.40463 4.80083 7.86979V6.6855H3.5656C3.04349 6.6855 2.61053 6.25253 2.61053 5.73043C2.61053 5.20832 3.04349 4.77536 3.5656 4.77536H4.80083V3.59107C4.80083 3.06896 5.23379 2.636 5.7559 2.636C6.278 2.636 6.71097 3.05623 6.71097 3.59107V4.77536H7.84432C8.36642 4.77536 8.79939 5.20832 8.79939 5.73043C8.79939 6.25253 8.37916 6.6855 7.84432 6.6855Z" fill="#292D32"/>
<path d="M17.8284 24.5646L5.90917 25.9654C5.08144 26.0673 4.34285 25.9399 3.71887 25.6343C3.05669 25.3032 2.53458 24.7939 2.20349 24.1189C1.89787 23.495 1.78326 22.7691 1.8724 21.9541L2.95482 12.8491C3.05669 12.8873 3.15856 12.9255 3.26044 12.951C4.03723 13.2311 4.86496 13.3712 5.73089 13.3712C7.5901 13.3712 9.38563 12.6963 10.7481 11.4865C11.3339 10.9772 11.856 10.3659 12.2763 9.66548C12.6328 9.06697 12.9002 8.43025 13.0785 7.80627C13.1677 7.47518 13.2441 7.11862 13.295 6.76206C13.3077 6.69839 13.3077 6.63472 13.3077 6.57104L13.5242 6.58378L21.2667 14.339L21.5978 19.9676C21.9161 23.1257 20.821 24.2208 17.8284 24.5646Z" fill="#292D32"/>
<path d="M25.4693 10.5463L22.8333 12.2145C22.3367 12.5201 21.7 12.4565 21.2925 12.0362L15.6512 6.39489C15.2437 5.98739 15.1673 5.35068 15.4729 4.85404L17.1411 2.21805C18.1598 0.613526 20.1973 0.53712 21.7127 2.02703L25.6731 5.98739C27.0611 7.4009 26.972 9.5912 25.4693 10.5463Z" fill="#292D32"/>
</svg>
