<svg width="21" height="19" viewBox="0 0 21 19" fill="none" xmlns="http://www.w3.org/2000/svg">
<path d="M18.2172 6.70201C16.3954 6.70201 15.6507 5.41372 16.5565 3.83356C17.0799 2.91767 16.7678 1.75016 15.852 1.22679L14.1108 0.230383C13.3156 -0.242659 12.289 0.0391532 11.816 0.834267L11.7053 1.0255C10.7995 2.60566 9.30988 2.60566 8.39399 1.0255L8.28327 0.834267C7.83036 0.0391532 6.80376 -0.242659 6.00864 0.230383L4.26745 1.22679C3.35156 1.75016 3.03955 2.92773 3.56292 3.84362C4.47881 5.41372 3.73402 6.70201 1.9123 6.70201C0.865567 6.70201 0 7.55751 0 8.6143V10.3857C0 11.4324 0.855502 12.298 1.9123 12.298C3.73402 12.298 4.47881 13.5863 3.56292 15.1664C3.03955 16.0823 3.35156 17.2498 4.26745 17.7732L6.00864 18.7696C6.80376 19.2427 7.83036 18.9608 8.3034 18.1657L8.41412 17.9745C9.31994 16.3943 10.8095 16.3943 11.7254 17.9745L11.8361 18.1657C12.3092 18.9608 13.3358 19.2427 14.1309 18.7696L15.8721 17.7732C16.788 17.2498 17.1 16.0723 16.5766 15.1664C15.6607 13.5863 16.4055 12.298 18.2272 12.298C19.274 12.298 20.1395 11.4425 20.1395 10.3857V8.6143C20.1295 7.56757 19.274 6.70201 18.2172 6.70201ZM10.0647 12.771C8.26314 12.771 6.79369 11.3016 6.79369 9.5C6.79369 7.69841 8.26314 6.22896 10.0647 6.22896C11.8663 6.22896 13.3358 7.69841 13.3358 9.5C13.3358 11.3016 11.8663 12.771 10.0647 12.771Z" fill="#292D32"/>
</svg>
