<svg width="17" height="17" viewBox="0 0 17 17" fill="none" xmlns="http://www.w3.org/2000/svg">
<path d="M13.0974 16.3897C12.6906 16.3897 12.1686 16.2592 11.5161 15.8753L9.22074 14.5166C8.98277 14.3784 8.52217 14.3784 8.29187 14.5166L5.98889 15.8753C4.63012 16.6814 3.83175 16.359 3.47095 16.0979C3.11783 15.8369 2.56511 15.1691 2.92591 13.6337L3.47095 11.277C3.53237 11.0314 3.40954 10.6091 3.2253 10.4249L1.32149 8.5211C0.369588 7.56919 0.446354 6.75547 0.576857 6.35626C0.70736 5.95708 1.1219 5.25082 2.44228 5.0282L4.89113 4.62134C5.12143 4.58296 5.45153 4.3373 5.55132 4.13003L6.91009 1.42018C7.5242 0.184239 8.33025 0 8.75247 0C9.17468 0 9.98073 0.184239 10.5949 1.42018L11.946 4.12236C12.0534 4.32963 12.3835 4.57528 12.6138 4.61366L15.0627 5.02052C16.3907 5.24315 16.8053 5.9494 16.9281 6.34858C17.0509 6.74779 17.1277 7.56152 16.1835 8.51342L14.2797 10.4249C14.0954 10.6091 13.9803 11.0237 14.034 11.277L14.579 13.6337C14.9322 15.1691 14.3871 15.8369 14.034 16.0979C13.8421 16.2361 13.535 16.3897 13.0974 16.3897ZM8.75247 13.2576C9.12862 13.2576 9.50478 13.3497 9.80417 13.5263L12.0995 14.885C12.7674 15.2842 13.1896 15.2842 13.3508 15.1691C13.512 15.0539 13.6271 14.6471 13.4583 13.8947L12.9132 11.538C12.7674 10.9009 13.0053 10.0795 13.4659 9.61118L15.3697 7.70737C15.7459 7.33122 15.9148 6.96274 15.838 6.70941C15.7536 6.45606 15.4004 6.24879 14.8784 6.16434L12.4296 5.75748C11.8385 5.65769 11.1936 5.18173 10.925 4.64437L9.57387 1.94219C9.32822 1.45089 9.02115 1.15917 8.75247 1.15917C8.48379 1.15917 8.17672 1.45089 7.93874 1.94219L6.57999 4.64437C6.31131 5.18173 5.66647 5.65769 5.07537 5.75748L2.6342 6.16434C2.11219 6.24879 1.75906 6.45606 1.67462 6.70941C1.59017 6.96274 1.76674 7.33889 2.14289 7.70737L4.0467 9.61118C4.5073 10.0718 4.74527 10.9009 4.59942 11.538L4.05438 13.8947C3.87781 14.6547 4.00064 15.0539 4.16185 15.1691C4.32306 15.2842 4.7376 15.2765 5.41314 14.885L7.70844 13.5263C8.00016 13.3497 8.37631 13.2576 8.75247 13.2576Z" fill="black"/>
<path d="M5.5 4.5L6.8437 3.49223C7.25685 3.18236 7.5 2.69606 7.5 2.17962V2.01612C7.5 1.68566 7.63128 1.36872 7.86495 1.13505L7.93692 1.06308C8.27319 0.726813 8.7869 0.643449 9.21224 0.85612C9.40018 0.950089 9.55742 1.0957 9.66553 1.27588L10.6861 2.97689C10.8946 3.32432 11.1449 3.64487 11.4314 3.93137C11.808 4.30799 12.2429 4.62144 12.7193 4.85963L13.4525 5.22623C13.8125 5.40627 14.2096 5.5 14.6122 5.5H15.288C15.7328 5.5 16.1482 5.72232 16.395 6.09246C16.7468 6.62016 16.6772 7.3228 16.2287 7.77126L14.6731 9.32691C14.558 9.44202 14.4318 9.54548 14.2963 9.63578C13.5042 10.1639 13.0857 11.0999 13.2203 12.0423L13.4864 13.9045C13.4954 13.968 13.5102 14.0306 13.5305 14.0915L13.6838 14.5513C13.8393 15.018 13.492 15.5 13 15.5H12.9008C12.324 15.5 11.7709 15.2709 11.363 14.863C11.1243 14.6243 10.8332 14.4444 10.513 14.3377L9.97434 14.1581C9.66017 14.0534 9.33117 14 9 14C8.66883 14 8.33983 14.0534 8.02566 14.1581L7.45684 14.3477C7.15266 14.4491 6.85607 14.572 6.56929 14.7154L5.25623 15.3719C5.08773 15.4561 4.90192 15.5 4.71353 15.5H4.42356C3.91349 15.5 3.5 15.0865 3.5 14.5764C3.5 14.5256 3.5042 14.4748 3.51257 14.4246L3.85465 12.3721C3.95052 11.7969 3.92701 11.208 3.78557 10.6423C3.59871 9.89483 3.21222 9.21222 2.66744 8.66743L2.5 8.5L1.51612 7.51612C1.19981 7.19981 1.08936 6.73193 1.23082 6.30755C1.39157 5.82529 1.84288 5.5 2.35123 5.5H3.26047C3.74268 5.5 4.2141 5.35726 4.61533 5.08978L5.5 4.5Z" fill="black"/>
</svg>
