<svg width="30" height="30" viewBox="0 0 30 30" fill="none" xmlns="http://www.w3.org/2000/svg">
<circle cx="15" cy="15" r="15" fill="#E4E4E4"/>
<path d="M19.0974 23.3897C18.6906 23.3897 18.1686 23.2592 17.5161 22.8753L15.2207 21.5166C14.9828 21.3784 14.5222 21.3784 14.2919 21.5166L11.9889 22.8753C10.6301 23.6814 9.83175 23.359 9.47095 23.0979C9.11783 22.8369 8.56511 22.1691 8.92591 20.6337L9.47095 18.277C9.53237 18.0314 9.40954 17.6091 9.2253 17.4249L7.32149 15.5211C6.36959 14.5692 6.44635 13.7555 6.57686 13.3563C6.70736 12.9571 7.1219 12.2508 8.44228 12.0282L10.8911 11.6213C11.1214 11.583 11.4515 11.3373 11.5513 11.13L12.9101 8.42018C13.5242 7.18424 14.3303 7 14.7525 7C15.1747 7 15.9807 7.18424 16.5949 8.42018L17.946 11.1224C18.0534 11.3296 18.3835 11.5753 18.6138 11.6137L21.0627 12.0205C22.3907 12.2431 22.8053 12.9494 22.9281 13.3486C23.0509 13.7478 23.1277 14.5615 22.1835 15.5134L20.2797 17.4249C20.0954 17.6091 19.9803 18.0237 20.034 18.277L20.579 20.6337C20.9322 22.1691 20.3871 22.8369 20.034 23.0979C19.8421 23.2361 19.535 23.3897 19.0974 23.3897ZM14.7525 20.2576C15.1286 20.2576 15.5048 20.3497 15.8042 20.5263L18.0995 21.885C18.7674 22.2842 19.1896 22.2842 19.3508 22.1691C19.512 22.0539 19.6271 21.6471 19.4583 20.8947L18.9132 18.538C18.7674 17.9009 19.0053 17.0795 19.4659 16.6112L21.3697 14.7074C21.7459 14.3312 21.9148 13.9627 21.838 13.7094C21.7536 13.4561 21.4004 13.2488 20.8784 13.1643L18.4296 12.7575C17.8385 12.6577 17.1936 12.1817 16.925 11.6444L15.5739 8.94219C15.3282 8.45089 15.0212 8.15917 14.7525 8.15917C14.4838 8.15917 14.1767 8.45089 13.9387 8.94219L12.58 11.6444C12.3113 12.1817 11.6665 12.6577 11.0754 12.7575L8.6342 13.1643C8.11219 13.2488 7.75906 13.4561 7.67462 13.7094C7.59017 13.9627 7.76674 14.3389 8.14289 14.7074L10.0467 16.6112C10.5073 17.0718 10.7453 17.9009 10.5994 18.538L10.0544 20.8947C9.87781 21.6547 10.0006 22.0539 10.1618 22.1691C10.3231 22.2842 10.7376 22.2765 11.4131 21.885L13.7084 20.5263C14.0002 20.3497 14.3763 20.2576 14.7525 20.2576Z" fill="black"/>
</svg>
