<svg width="14" height="15" viewBox="0 0 14 15" fill="none" xmlns="http://www.w3.org/2000/svg">
<path d="M12.9851 3.79431C12.9713 3.79431 12.9505 3.79431 12.9297 3.79431C9.26691 3.42734 5.611 3.28886 1.98969 3.65583L0.577176 3.79431C0.286364 3.82201 0.0301735 3.61429 0.00247721 3.32348C-0.0252191 3.03266 0.182503 2.7834 0.46639 2.7557L1.8789 2.61722C5.56253 2.24332 9.29461 2.38873 13.0336 2.7557C13.3175 2.7834 13.5252 3.03959 13.4975 3.32348C13.4768 3.59351 13.2483 3.79431 12.9851 3.79431Z" fill="black"/>
<path d="M4.33085 3.09506C4.30316 3.09506 4.27546 3.09506 4.24084 3.08814C3.96388 3.03967 3.77 2.76963 3.81847 2.49267L3.9708 1.58561C4.08159 0.920902 4.23392 0 5.8472 0H7.66131C9.28154 0 9.43387 0.955523 9.53773 1.59254L9.69006 2.49267C9.73853 2.77655 9.54466 3.04659 9.26769 3.08814C8.98381 3.13661 8.71377 2.94273 8.67222 2.66577L8.51989 1.76564C8.42296 1.16324 8.40218 1.04554 7.66823 1.04554H5.85412C5.1202 1.04554 5.10635 1.14247 5.00249 1.75872L4.84324 2.65885C4.80169 2.91504 4.58012 3.09506 4.33085 3.09506Z" fill="black"/>
<path d="M8.97652 14.887H4.53125C2.11475 14.887 2.01781 13.5506 1.94165 12.4705L1.49158 5.49791C1.47081 5.21403 1.69238 4.96477 1.97627 4.94399C2.26708 4.93015 2.50942 5.14479 2.5302 5.42868L2.98026 12.4012C3.05643 13.4537 3.08412 13.8484 4.53125 13.8484H8.97652C10.4306 13.8484 10.4583 13.4537 10.5275 12.4012L10.9776 5.42868C10.9983 5.14479 11.2476 4.93015 11.5315 4.94399C11.8154 4.96477 12.037 5.2071 12.0162 5.49791L11.5661 12.4705C11.49 13.5506 11.393 14.887 8.97652 14.887Z" fill="black"/>
<path d="M7.90316 11.0787H5.59744C5.31354 11.0787 5.07812 10.8432 5.07812 10.5593C5.07812 10.2755 5.31354 10.04 5.59744 10.04H7.90316C8.18705 10.04 8.42247 10.2755 8.42247 10.5593C8.42247 10.8432 8.18705 11.0787 7.90316 11.0787Z" fill="black"/>
<path d="M8.48476 8.30888H5.02272C4.73884 8.30888 4.50342 8.07346 4.50342 7.78957C4.50342 7.50568 4.73884 7.27026 5.02272 7.27026H8.48476C8.76865 7.27026 9.00407 7.50568 9.00407 7.78957C9.00407 8.07346 8.76865 8.30888 8.48476 8.30888Z" fill="black"/>
</svg>
