<svg width="30" height="30" viewBox="0 0 30 30" fill="none" xmlns="http://www.w3.org/2000/svg">
<circle cx="15" cy="15" r="15" fill="#E4E4E4"/>
<path d="M20.9851 10.7943C20.9713 10.7943 20.9505 10.7943 20.9297 10.7943C17.2669 10.4273 13.611 10.2889 9.98969 10.6558L8.57718 10.7943C8.28636 10.822 8.03017 10.6143 8.00248 10.3235C7.97478 10.0327 8.1825 9.7834 8.46639 9.7557L9.8789 9.61722C13.5625 9.24332 17.2946 9.38873 21.0336 9.7557C21.3175 9.7834 21.5252 10.0396 21.4975 10.3235C21.4768 10.5935 21.2483 10.7943 20.9851 10.7943Z" fill="black"/>
<path d="M12.3309 10.0951C12.3032 10.0951 12.2755 10.0951 12.2408 10.0881C11.9639 10.0397 11.77 9.76963 11.8185 9.49267L11.9708 8.58561C12.0816 7.9209 12.2339 7 13.8472 7H15.6613C17.2815 7 17.4339 7.95552 17.5377 8.59254L17.6901 9.49267C17.7385 9.77655 17.5447 10.0466 17.2677 10.0881C16.9838 10.1366 16.7138 9.94273 16.6722 9.66577L16.5199 8.76564C16.423 8.16324 16.4022 8.04554 15.6682 8.04554H13.8541C13.1202 8.04554 13.1064 8.14247 13.0025 8.75872L12.8432 9.65885C12.8017 9.91504 12.5801 10.0951 12.3309 10.0951Z" fill="black"/>
<path d="M16.9765 21.8869H12.5313C10.1148 21.8869 10.0178 20.5505 9.94165 19.4704L9.49158 12.4978C9.47081 12.2139 9.69238 11.9646 9.97627 11.9439C10.2671 11.93 10.5094 12.1447 10.5302 12.4286L10.9803 19.4011C11.0564 20.4536 11.0841 20.8482 12.5313 20.8482H16.9765C18.4306 20.8482 18.4583 20.4536 18.5275 19.4011L18.9776 12.4286C18.9983 12.1447 19.2476 11.93 19.5315 11.9439C19.8154 11.9646 20.037 12.207 20.0162 12.4978L19.5661 19.4704C19.49 20.5505 19.393 21.8869 16.9765 21.8869Z" fill="black"/>
<path d="M15.9032 18.0785H13.5974C13.3135 18.0785 13.0781 17.8431 13.0781 17.5592C13.0781 17.2753 13.3135 17.0399 13.5974 17.0399H15.9032C16.187 17.0399 16.4225 17.2753 16.4225 17.5592C16.4225 17.8431 16.187 18.0785 15.9032 18.0785Z" fill="black"/>
<path d="M16.4848 15.3089H13.0227C12.7388 15.3089 12.5034 15.0735 12.5034 14.7896C12.5034 14.5057 12.7388 14.2703 13.0227 14.2703H16.4848C16.7686 14.2703 17.0041 14.5057 17.0041 14.7896C17.0041 15.0735 16.7686 15.3089 16.4848 15.3089Z" fill="black"/>
</svg>
