<svg width="20" height="24" viewBox="0 0 20 24" fill="none" xmlns="http://www.w3.org/2000/svg">
<path d="M19.7183 7.5493C18.5352 2.34366 13.9944 0 10.0057 0C10.0057 0 10.0057 0 9.99438 0C6.01688 0 1.46477 2.3324 0.281666 7.53803C-1.03665 13.3521 2.52392 18.2761 5.74646 21.3747C6.94083 22.524 8.47326 23.0986 10.0057 23.0986C11.538 23.0986 13.0704 22.524 14.2535 21.3747C17.4761 18.2761 21.0366 13.3634 19.7183 7.5493ZM10.0057 13.1944C8.04508 13.1944 6.45632 11.6056 6.45632 9.64508C6.45632 7.68451 8.04508 6.09578 10.0057 6.09578C11.9662 6.09578 13.5549 7.68451 13.5549 9.64508C13.5549 11.6056 11.9662 13.1944 10.0057 13.1944Z" fill="#292D32"/>
</svg>
